<svg width="64" height="64" viewBox="0 0 64 64" fill="none" xmlns="http://www.w3.org/2000/svg">
<g clip-path="url(#clip0_63_125)">
<path d="M1.64125 31.6171C1.63976 36.9944 3.04478 42.2448 5.71641 46.8727L1.38574 62.6847L17.5673 58.4418C22.043 60.8782 27.0575 62.1549 32.1534 62.1553H32.1668C48.9891 62.1553 62.6829 48.4665 62.6901 31.6412C62.6933 23.4881 59.5211 15.8215 53.7576 10.0536C47.9951 4.28614 40.3312 1.10821 32.1655 1.10449C15.3412 1.10449 1.64844 14.7926 1.64149 31.6171" fill="url(#paint0_linear_63_125)"/>
<path d="M0.551559 31.6071C0.549823 37.1778 2.0052 42.6161 4.77209 47.4096L0.286133 63.7884L17.0479 59.3935C21.6663 61.9116 26.8662 63.2392 32.1574 63.2412H32.171C49.5969 63.2412 63.7826 49.06 63.79 31.6324C63.793 23.1864 60.5067 15.2442 54.5373 9.26958C48.5672 3.29575 40.6292 0.00347287 32.171 0C14.7422 0 0.558505 14.1792 0.551559 31.6071ZM10.5338 46.5841L9.90796 45.5906C7.27702 41.4073 5.88837 36.573 5.89035 31.6091C5.89581 17.1235 17.6847 5.33829 32.181 5.33829C39.2011 5.34127 45.7986 8.07789 50.7608 13.0431C55.7228 18.0088 58.4532 24.6097 58.4515 31.6304C58.445 46.116 46.6559 57.9026 32.171 57.9026H32.1606C27.4442 57.9002 22.8186 56.6335 18.7846 54.24L17.8246 53.6707L7.87782 56.2786L10.5338 46.5841Z" fill="url(#paint1_linear_63_125)"/>
<path d="M24.2682 18.3932C23.6763 17.0778 23.0535 17.0512 22.4906 17.0281C22.0297 17.0083 21.5028 17.0098 20.9764 17.0098C20.4495 17.0098 19.5935 17.208 18.8699 17.9981C18.1455 18.7889 16.1045 20.7 16.1045 24.5868C16.1045 28.4737 18.9356 32.2304 19.3303 32.758C19.7255 33.2846 24.7958 41.5163 32.8261 44.6831C39.5 47.3148 40.8581 46.7914 42.3065 46.6594C43.7552 46.5279 46.981 44.7488 47.6391 42.904C48.2977 41.0594 48.2977 39.4783 48.1003 39.1478C47.9028 38.8187 47.3759 38.621 46.5859 38.226C45.7958 37.8311 41.9114 35.9196 41.1873 35.6559C40.4629 35.3924 39.9363 35.261 39.4094 36.052C38.8825 36.8419 37.3696 38.621 36.9085 39.1478C36.4478 39.676 35.9867 39.7417 35.1968 39.3465C34.4063 38.9501 31.8619 38.1169 28.8432 35.4257C26.4946 33.3315 24.909 30.7455 24.4481 29.9544C23.9872 29.1646 24.3987 28.7364 24.7948 28.3428C25.1498 27.9888 25.5852 27.4202 25.9806 26.9591C26.3745 26.4977 26.506 26.1685 26.7694 25.6416C27.0331 25.1142 26.9011 24.6528 26.7039 24.2577C26.506 23.8625 24.9707 19.9553 24.2682 18.3932Z" fill="white"/>
</g>
<defs>
<linearGradient id="paint0_linear_63_125" x1="3066.6" y1="6159.12" x2="3066.6" y2="1.10449" gradientUnits="userSpaceOnUse">
<stop stop-color="#1FAF38"/>
<stop offset="1" stop-color="#60D669"/>
</linearGradient>
<linearGradient id="paint1_linear_63_125" x1="3175.48" y1="6378.84" x2="3175.48" y2="0" gradientUnits="userSpaceOnUse">
<stop stop-color="#F9F9F9"/>
<stop offset="1" stop-color="white"/>
</linearGradient>
<clipPath id="clip0_63_125">
<rect width="63.5039" height="64" fill="white" transform="translate(0.286133)"/>
</clipPath>
</defs>
</svg>
