<svg width="92" height="92" viewBox="0 0 92 92" fill="none" xmlns="http://www.w3.org/2000/svg">
<g clip-path="url(#clip0_63_108)">
<path d="M50.8119 60.742H41.1869C37.5658 60.742 34.6205 58.4412 34.6205 55.617C34.6205 54.4686 33.6869 53.535 32.5346 53.535C31.3862 53.535 30.4526 54.4686 30.4526 55.617C30.4526 60.742 35.269 64.91 41.1866 64.91H43.9171V69.5545C43.9171 70.7068 44.8468 71.6404 45.9991 71.6404C47.1514 71.6404 48.0811 70.7068 48.0811 69.5545V64.91H50.8116C56.7296 64.91 61.5456 60.742 61.5456 55.617V53.2068C61.5456 48.0818 56.7292 43.9177 50.8116 43.9177H41.1866C37.5655 43.9177 34.6202 41.6169 34.6202 38.7927V36.3786C34.6202 33.5544 37.5655 31.2536 41.1866 31.2536H50.8116C54.4327 31.2536 57.378 33.5544 57.378 36.3825V36.3864C57.378 36.9372 57.6007 37.4684 57.9913 37.8552C58.3819 38.2458 58.9132 38.4646 59.464 38.4646C60.0187 38.4646 60.546 38.2459 60.9367 37.8552C61.3274 37.4646 61.5461 36.9333 61.5461 36.3786C61.5461 31.2536 56.7297 27.0856 50.8121 27.0856L48.0816 27.0895V22.4411C48.0816 21.2927 47.1519 20.3591 45.9996 20.3591C44.8473 20.3591 43.9176 21.2927 43.9176 22.4411V27.0856L41.1871 27.0895C35.2691 27.0895 30.4531 31.2575 30.4531 36.3825V38.7927C30.4531 43.9177 35.2695 48.0818 41.1871 48.0818H50.8121C54.4332 48.0818 57.3785 50.3826 57.3785 53.2068V55.617C57.3785 58.4451 54.433 60.742 50.8119 60.742Z" fill="url(#paint0_linear_63_108)"/>
<path d="M2.24997 48.082H8.98047C10.1289 48.082 11.0625 47.1523 11.0625 46C11.0625 44.8477 10.1289 43.918 8.98047 43.918H2.24997C1.09767 43.918 0.167969 44.8477 0.167969 46C0.167969 47.1523 1.09766 48.082 2.24997 48.082Z" fill="url(#paint1_linear_63_108)"/>
<path d="M89.75 43.918H83.0195C81.8711 43.918 80.9375 44.8477 80.9375 46C80.9375 47.1523 81.8711 48.082 83.0195 48.082H89.75C90.9023 48.082 91.832 47.1523 91.832 46C91.832 44.8477 90.9023 43.918 89.75 43.918Z" fill="url(#paint2_linear_63_108)"/>
<path d="M45.9999 11.066C46.5507 11.066 47.0819 10.8433 47.4726 10.4527C47.8633 10.0621 48.082 9.53471 48.082 8.97998V2.24948C48.082 1.09718 47.1523 0.16748 46 0.16748C44.8477 0.16748 43.918 1.09717 43.918 2.24948V8.97998C43.918 9.53467 44.1367 10.062 44.5273 10.4527C44.918 10.8434 45.4491 11.066 45.9999 11.066Z" fill="url(#paint3_linear_63_108)"/>
<path d="M48.082 89.75V83.0195C48.082 81.8672 47.1523 80.9336 46 80.9336C44.8477 80.9336 43.918 81.8672 43.918 83.0195V89.75C43.918 90.9023 44.8477 91.832 46 91.832C47.1523 91.832 48.082 90.9023 48.082 89.75Z" fill="url(#paint4_linear_63_108)"/>
<path d="M72.1762 21.9061C72.7309 21.9061 73.2582 21.6873 73.6489 21.2967L78.4106 16.5389C79.2075 15.7225 79.1997 14.4178 78.3911 13.6092C77.5864 12.8045 76.2817 12.7967 75.4653 13.5896L70.7036 18.3513C70.1059 18.9451 69.9302 19.8396 70.2505 20.6208C70.5747 21.3982 71.3324 21.9061 72.1762 21.9061Z" fill="url(#paint5_linear_63_108)"/>
<path d="M15.0619 79.0201C15.6127 79.0201 16.1439 78.8013 16.5346 78.4107L21.2963 73.6529V73.649C22.0932 72.8326 22.0854 71.5279 21.2768 70.7232C20.4721 69.9146 19.1674 69.9068 18.351 70.7037L13.5893 75.4615C12.9955 76.0591 12.8158 76.9537 13.1401 77.7349C13.4604 78.5122 14.222 79.0201 15.0619 79.0201Z" fill="url(#paint6_linear_63_108)"/>
<path d="M18.3521 21.2969C19.1685 22.0938 20.4732 22.0821 21.2779 21.2774C22.0865 20.4727 22.0943 19.168 21.2974 18.3516L16.5357 13.5899C15.7193 12.7969 14.4185 12.8087 13.6138 13.6134C12.8092 14.418 12.7974 15.7189 13.5904 16.5392L18.3521 21.2969Z" fill="url(#paint7_linear_63_108)"/>
<path d="M75.4649 78.41C76.2813 79.2029 77.586 79.1951 78.3907 78.3904C79.1993 77.5819 79.2071 76.2771 78.4102 75.4607L73.6485 70.7029C72.8321 69.9061 71.5274 69.9178 70.7227 70.7225C69.9141 71.5272 69.9063 72.8319 70.7032 73.6483L75.4649 78.41Z" fill="url(#paint8_linear_63_108)"/>
</g>
<defs>
<linearGradient id="paint0_linear_63_108" x1="61.5461" y1="71.6404" x2="16.0758" y2="44.0703" gradientUnits="userSpaceOnUse">
<stop stop-color="#9158D0"/>
<stop offset="0.5" stop-color="#F180FF"/>
<stop offset="1" stop-color="#FF7BE7"/>
</linearGradient>
<linearGradient id="paint1_linear_63_108" x1="11.0625" y1="48.082" x2="8.28514" y2="40.8155" gradientUnits="userSpaceOnUse">
<stop stop-color="#9158D0"/>
<stop offset="0.5" stop-color="#F180FF"/>
<stop offset="1" stop-color="#FF7BE7"/>
</linearGradient>
<linearGradient id="paint2_linear_63_108" x1="91.832" y1="48.082" x2="89.0547" y2="40.8155" gradientUnits="userSpaceOnUse">
<stop stop-color="#9158D0"/>
<stop offset="0.5" stop-color="#F180FF"/>
<stop offset="1" stop-color="#FF7BE7"/>
</linearGradient>
<linearGradient id="paint3_linear_63_108" x1="48.082" y1="11.066" x2="40.8148" y2="8.28939" gradientUnits="userSpaceOnUse">
<stop stop-color="#9158D0"/>
<stop offset="0.5" stop-color="#F180FF"/>
<stop offset="1" stop-color="#FF7BE7"/>
</linearGradient>
<linearGradient id="paint4_linear_63_108" x1="48.082" y1="91.832" x2="40.8148" y2="89.0554" gradientUnits="userSpaceOnUse">
<stop stop-color="#9158D0"/>
<stop offset="0.5" stop-color="#F180FF"/>
<stop offset="1" stop-color="#FF7BE7"/>
</linearGradient>
<linearGradient id="paint5_linear_63_108" x1="79.003" y1="21.9061" x2="70.0972" y2="12.9959" gradientUnits="userSpaceOnUse">
<stop stop-color="#9158D0"/>
<stop offset="0.5" stop-color="#F180FF"/>
<stop offset="1" stop-color="#FF7BE7"/>
</linearGradient>
<linearGradient id="paint6_linear_63_108" x1="21.8886" y1="79.0201" x2="12.9799" y2="70.1119" gradientUnits="userSpaceOnUse">
<stop stop-color="#9158D0"/>
<stop offset="0.5" stop-color="#F180FF"/>
<stop offset="1" stop-color="#FF7BE7"/>
</linearGradient>
<linearGradient id="paint7_linear_63_108" x1="21.8898" y1="21.8878" x2="13.0044" y2="13.001" gradientUnits="userSpaceOnUse">
<stop stop-color="#9158D0"/>
<stop offset="0.5" stop-color="#F180FF"/>
<stop offset="1" stop-color="#FF7BE7"/>
</linearGradient>
<linearGradient id="paint8_linear_63_108" x1="79.0025" y1="78.9994" x2="70.1152" y2="70.1077" gradientUnits="userSpaceOnUse">
<stop stop-color="#9158D0"/>
<stop offset="0.5" stop-color="#F180FF"/>
<stop offset="1" stop-color="#FF7BE7"/>
</linearGradient>
<clipPath id="clip0_63_108">
<rect width="92" height="92" fill="white"/>
</clipPath>
</defs>
</svg>
