<svg width="64" height="64" viewBox="0 0 64 64" fill="none" xmlns="http://www.w3.org/2000/svg">
<g clip-path="url(#clip0_63_120)">
<path d="M32 0C23.515 0 15.37 3.3735 9.375 9.3725C3.37386 15.3739 0.00171724 23.5129 0 32C0 40.4835 3.375 48.6285 9.375 54.6275C15.37 60.6265 23.515 64 32 64C40.485 64 48.63 60.6265 54.625 54.6275C60.625 48.6285 64 40.4835 64 32C64 23.5165 60.625 15.3715 54.625 9.3725C48.63 3.3735 40.485 0 32 0Z" fill="url(#paint0_linear_63_120)"/>
<path d="M14.4852 31.6621C23.8152 27.5981 30.0352 24.9188 33.1452 23.6241C42.0352 19.9276 43.8802 19.2856 45.0852 19.2639C45.3502 19.2596 45.9402 19.3251 46.3252 19.6364C46.6452 19.8989 46.7352 20.2539 46.7802 20.5031C46.8202 20.7521 46.8752 21.3196 46.8302 21.7626C46.3502 26.8226 44.2652 39.1016 43.2052 44.7691C42.7602 47.1671 41.8752 47.9711 41.0202 48.0496C39.1602 48.2206 37.7502 46.8216 35.9502 45.6421C33.1352 43.7956 31.5452 42.6466 28.8102 40.8451C25.6502 38.7631 27.7002 37.6186 29.5002 35.7486C29.9702 35.2591 38.1602 27.8116 38.3152 27.1361C38.3352 27.0516 38.3552 26.7366 38.1652 26.5706C37.9802 26.4041 37.7052 26.4611 37.5052 26.5061C37.2202 26.5701 32.7252 29.5441 24.0052 35.4276C22.7302 36.3046 21.5752 36.7321 20.5352 36.7096C19.3952 36.6851 17.1952 36.0636 15.5602 35.5326C13.5602 34.8811 11.9652 34.5366 12.1052 33.4301C12.1752 32.8541 12.9702 32.2646 14.4852 31.6621Z" fill="white"/>
</g>
<defs>
<linearGradient id="paint0_linear_63_120" x1="3200" y1="0" x2="3200" y2="6400" gradientUnits="userSpaceOnUse">
<stop stop-color="#2AABEE"/>
<stop offset="1" stop-color="#229ED9"/>
</linearGradient>
<clipPath id="clip0_63_120">
<rect width="64" height="64" fill="white"/>
</clipPath>
</defs>
</svg>
