<svg width="59" height="64" viewBox="0 0 59 64" fill="none" xmlns="http://www.w3.org/2000/svg">
<path fill-rule="evenodd" clip-rule="evenodd" d="M43.2003 2.295C33.6119 0.151668 23.6686 0.151668 14.0803 2.295L13.0471 2.52357C10.3493 3.12496 7.87131 4.4633 5.88905 6.3896C3.9068 8.31589 2.49806 10.7545 1.81968 13.434C-0.606561 23.0118 -0.606561 33.0433 1.81968 42.6211C2.4667 45.1765 3.77861 47.5151 5.62212 49.3993C7.46562 51.2834 9.77502 52.6461 12.3157 53.3487L13.7328 61.8089C13.7781 62.0775 13.8945 62.3292 14.07 62.5375C14.2455 62.7459 14.4736 62.9034 14.7307 62.9936C14.9877 63.0839 15.2643 63.1036 15.5315 63.0506C15.7987 62.9977 16.0469 62.8741 16.2502 62.6927L24.5732 55.2474C30.8211 55.6245 37.091 55.125 43.2003 53.7632L44.2364 53.5346C46.9343 52.9332 49.4123 51.5949 51.3945 49.6686C53.3768 47.7423 54.7855 45.3036 55.4639 42.6241C57.8901 33.0464 57.8901 23.0148 55.4639 13.4371C54.7853 10.7572 53.3761 8.31828 51.3932 6.39195C49.4104 4.46562 46.9318 3.1275 44.2334 2.52661L43.2003 2.295ZM16.6524 13.1872C16.086 13.1042 15.5083 13.2183 15.0159 13.5102H14.9732C13.8303 14.1807 12.8003 15.0249 11.9225 16.0184C11.1911 16.8626 10.7949 17.7159 10.6913 18.5388C10.6303 19.0264 10.673 19.5201 10.8163 19.9864L10.8711 20.0169C11.694 22.4337 12.7667 24.759 14.0772 26.9472C15.7677 30.0202 17.847 32.8626 20.2639 35.4043L20.337 35.5079L20.4528 35.5933L20.5229 35.6756L20.6083 35.7487C23.159 38.1726 26.0081 40.2618 29.0867 41.9659C32.6067 43.8828 34.7431 44.7879 36.0262 45.1659V45.1841C36.401 45.2999 36.7424 45.3518 37.0867 45.3518C38.18 45.2733 39.215 44.8289 40.0246 44.09C41.0151 43.2123 41.8532 42.1792 42.5054 41.0302V41.0089C43.118 39.8508 42.9107 38.7598 42.0269 38.0192C40.2531 36.4662 38.3334 35.0883 36.2943 33.9049C34.929 33.1643 33.5424 33.6123 32.9816 34.362L31.7839 35.8737C31.1683 36.6234 30.0528 36.5198 30.0528 36.5198L30.0224 36.538C21.6993 34.4139 19.4776 25.9872 19.4776 25.9872C19.4776 25.9872 19.374 24.8413 20.145 24.2561L21.6444 23.0493C22.3637 22.4641 22.8635 21.0805 22.0924 19.7152C20.9117 17.6776 19.537 15.7589 17.9873 13.9857C17.6483 13.5693 17.1736 13.2855 16.6463 13.1841M30.7142 9.52395C30.31 9.52395 29.9224 9.68449 29.6367 9.97026C29.3509 10.256 29.1904 10.6436 29.1904 11.0478C29.1904 11.4519 29.3509 11.8395 29.6367 12.1253C29.9224 12.411 30.31 12.5716 30.7142 12.5716C34.5694 12.5716 37.7694 13.8302 40.302 16.2439C41.6033 17.5636 42.6182 19.127 43.2825 20.8398C43.95 22.5556 44.2547 24.3872 44.1755 26.2219C44.1671 26.422 44.1982 26.6218 44.267 26.8099C44.3358 26.998 44.441 27.1707 44.5766 27.3181C44.8503 27.6159 45.2312 27.7927 45.6353 27.8097C46.0394 27.8266 46.4338 27.6824 46.7315 27.4086C47.0293 27.1348 47.2061 26.754 47.2231 26.3499C47.314 24.0933 46.9395 21.8421 46.1229 19.7365C45.3025 17.6202 44.0533 15.6965 42.4536 14.0862L42.4231 14.0558C39.281 11.0539 35.3039 9.52395 30.7142 9.52395ZM30.6105 14.5342C30.2064 14.5342 29.8188 14.6948 29.533 14.9805C29.2473 15.2663 29.0867 15.6539 29.0867 16.058C29.0867 16.4622 29.2473 16.8498 29.533 17.1355C29.8188 17.4213 30.2064 17.5819 30.6105 17.5819H30.6624C33.4418 17.7799 35.4654 18.7064 36.8825 20.2272C38.3363 21.7937 39.089 23.7411 39.0311 26.1487C39.0218 26.5528 39.1734 26.9441 39.4526 27.2365C39.7318 27.5288 40.1157 27.6983 40.5199 27.7076C40.924 27.7169 41.3153 27.5652 41.6076 27.286C41.9 27.0068 42.0694 26.6229 42.0787 26.2188C42.1519 23.0584 41.134 20.3308 39.1164 18.1548V18.1487C37.0532 15.9361 34.222 14.7659 30.8147 14.5373L30.7629 14.5312L30.6105 14.5342ZM30.5526 19.639C30.3487 19.621 30.1432 19.6443 29.9485 19.7075C29.7538 19.7706 29.5738 19.8724 29.4192 20.0067C29.2647 20.1409 29.1388 20.305 29.0491 20.489C28.9593 20.673 28.9076 20.8732 28.897 21.0776C28.8863 21.2821 28.917 21.4866 28.9871 21.6789C29.0572 21.8712 29.1654 22.0475 29.3051 22.1971C29.4449 22.3467 29.6133 22.4666 29.8004 22.5497C29.9875 22.6327 30.1895 22.6772 30.3942 22.6805C31.6681 22.7476 32.4818 23.1316 32.9938 23.6466C33.5088 24.1647 33.8928 24.9967 33.9629 26.298C33.9667 26.5025 34.0117 26.7042 34.095 26.8909C34.1784 27.0777 34.2985 27.2458 34.4483 27.3851C34.598 27.5245 34.7742 27.6322 34.9665 27.702C35.1587 27.7718 35.363 27.8022 35.5673 27.7914C35.7715 27.7805 35.9715 27.7287 36.1553 27.6389C36.339 27.5491 36.5029 27.4233 36.637 27.2689C36.7711 27.1144 36.8727 26.9346 36.9359 26.7401C36.999 26.5455 37.0223 26.3403 37.0044 26.1365C36.9069 24.3079 36.334 22.6927 35.1606 21.5041C33.9812 20.3156 32.3751 19.7365 30.5526 19.639Z" fill="#9747FF"/>
</svg>
